<svg width="136" height="40" viewBox="0 0 136 40" fill="none" xmlns="http://www.w3.org/2000/svg">
<g clip-path="url(#clip0_25_7)">
<path d="M130.213 0.851074H102.128C99.3074 0.851074 97.0212 3.13728 97.0212 5.95746V31.4894C97.0212 34.3096 99.3074 36.5958 102.128 36.5958H130.213C133.033 36.5958 135.319 34.3096 135.319 31.4894V5.95746C135.319 3.13728 133.033 0.851074 130.213 0.851074Z" fill="#3182CE"/>
<path d="M14.7607 25.1563C14.7607 24.7241 14.6942 24.3363 14.5612 23.9927C14.4393 23.638 14.2066 23.3167 13.8631 23.0286C13.5195 22.7294 13.0375 22.4357 12.4169 22.1476C11.7964 21.8595 10.993 21.5603 10.0067 21.25C8.90964 20.8954 7.86793 20.4964 6.88168 20.0532C5.9065 19.61 5.04214 19.0946 4.28859 18.5073C3.54613 17.9089 2.9588 17.2163 2.52662 16.4295C2.10553 15.6427 1.89497 14.7285 1.89497 13.6868C1.89497 12.6784 2.11661 11.7642 2.55987 10.9442C3.00313 10.113 3.6237 9.40383 4.42157 8.81651C5.21944 8.21809 6.16137 7.75821 7.24736 7.43684C8.34444 7.11547 9.54675 6.95479 10.8544 6.95479C12.6386 6.95479 14.1955 7.27615 15.5253 7.91889C16.8551 8.56162 17.8856 9.44264 18.617 10.5619C19.3595 11.6811 19.7307 12.961 19.7307 14.4016H14.7773C14.7773 13.6923 14.6277 13.0718 14.3285 12.5399C14.0404 11.9969 13.5971 11.5703 12.9987 11.26C12.4113 10.9497 11.6689 10.7946 10.7713 10.7946C9.90692 10.7946 9.18667 10.9275 8.61041 11.1934C8.03416 11.4483 7.60198 11.7974 7.31386 12.2407C7.02574 12.6729 6.88168 13.1604 6.88168 13.7035C6.88168 14.1134 6.98141 14.4847 7.18088 14.8172C7.39143 15.1496 7.70171 15.4599 8.11173 15.748C8.52173 16.0361 9.02599 16.3077 9.62437 16.5625C10.2228 16.8174 10.9153 17.0667 11.7022 17.3105C13.0209 17.7094 14.1789 18.1582 15.1762 18.6569C16.1846 19.1556 17.0268 19.7152 17.7028 20.3357C18.3788 20.9563 18.8885 21.66 19.2321 22.4468C19.5756 23.2336 19.7473 24.1257 19.7473 25.123C19.7473 26.1757 19.5423 27.1177 19.1324 27.9488C18.7223 28.7799 18.1295 29.4836 17.3537 30.0598C16.5781 30.6361 15.6527 31.0738 14.5778 31.373C13.5029 31.6722 12.3005 31.8218 10.9708 31.8218C9.77398 31.8218 8.59381 31.6666 7.43021 31.3564C6.26665 31.035 5.20836 30.5529 4.25535 29.9102C3.31342 29.2675 2.55987 28.4475 1.99471 27.4501C1.42955 26.4528 1.14697 25.2726 1.14697 23.9096H6.15029C6.15029 24.6632 6.26665 25.3003 6.49936 25.8211C6.73208 26.342 7.05898 26.7631 7.48008 27.0844C7.91227 27.4058 8.42201 27.6386 9.0093 27.7826C9.60777 27.9266 10.2616 27.9986 10.9708 27.9986C11.8351 27.9986 12.5444 27.8768 13.0984 27.633C13.6636 27.3892 14.0792 27.0512 14.3451 26.619C14.6222 26.1868 14.7607 25.6992 14.7607 25.1563ZM33.0107 13.504V16.895H22.5386V13.504H33.0107ZM25.1317 9.06579H29.9189V26.0705C29.9189 26.5913 29.9854 26.9902 30.1184 27.2673C30.2624 27.5443 30.473 27.7382 30.7501 27.8491C31.0271 27.9488 31.3761 27.9986 31.7972 27.9986C32.0965 27.9986 32.3624 27.9876 32.5951 27.9655C32.8389 27.9322 33.0439 27.8989 33.2102 27.8657L33.2267 31.3896C32.8167 31.5226 32.3735 31.6279 31.897 31.7054C31.4205 31.7831 30.8941 31.8218 30.3178 31.8218C29.2651 31.8218 28.3453 31.65 27.5586 31.3066C26.7828 30.9519 26.1845 30.3867 25.7633 29.6111C25.3422 28.8353 25.1317 27.8158 25.1317 26.5525V9.06579ZM35.9016 22.6795V22.3305C35.9016 21.0117 36.09 19.7983 36.4668 18.6901C36.8435 17.5709 37.3921 16.6013 38.1124 15.7813C38.8327 14.9612 39.7193 14.324 40.7719 13.8697C41.8247 13.4043 43.0326 13.1716 44.3956 13.1716C45.7587 13.1716 46.9721 13.4043 48.0359 13.8697C49.0998 14.324 49.9919 14.9612 50.7121 15.7813C51.4435 16.6013 51.9976 17.5709 52.3743 18.6901C52.7512 19.7983 52.9395 21.0117 52.9395 22.3305V22.6795C52.9395 23.9872 52.7512 25.2006 52.3743 26.3198C51.9976 27.428 51.4435 28.3976 50.7121 29.2288C49.9919 30.0488 49.1053 30.686 48.0525 31.1403C46.9998 31.5946 45.7919 31.8218 44.4289 31.8218C43.0658 31.8218 41.8525 31.5946 40.7886 31.1403C39.7359 30.686 38.8438 30.0488 38.1124 29.2288C37.3921 28.3976 36.8435 27.428 36.4668 26.3198C36.09 25.2006 35.9016 23.9872 35.9016 22.6795ZM40.6889 22.3305V22.6795C40.6889 23.4331 40.7553 24.1368 40.8884 24.7906C41.0213 25.4443 41.2319 26.0206 41.5199 26.5193C41.8192 27.0069 42.207 27.3892 42.6835 27.6662C43.16 27.9432 43.7418 28.0818 44.4289 28.0818C45.0938 28.0818 45.6645 27.9432 46.141 27.6662C46.6175 27.3892 46.9998 27.0069 47.2879 26.5193C47.576 26.0206 47.7866 25.4443 47.9196 24.7906C48.0636 24.1368 48.1357 23.4331 48.1357 22.6795V22.3305C48.1357 21.5991 48.0636 20.912 47.9196 20.2693C47.7866 19.6155 47.5705 19.0392 47.2713 18.5406C46.9832 18.0308 46.6009 17.6318 46.1244 17.3437C45.6479 17.0557 45.0716 16.9116 44.3956 16.9116C43.7197 16.9116 43.1434 17.0557 42.6669 17.3437C42.2015 17.6318 41.8192 18.0308 41.5199 18.5406C41.2319 19.0392 41.0213 19.6155 40.8884 20.2693C40.7553 20.912 40.6889 21.5991 40.6889 22.3305ZM64.6736 28.0818C65.2609 28.0818 65.7817 27.971 66.236 27.7494C66.6904 27.5166 67.0451 27.1952 67.2999 26.7853C67.5658 26.3642 67.7044 25.871 67.7154 25.3059H72.2201C72.209 26.5692 71.871 27.694 71.2062 28.6802C70.5412 29.6554 69.6492 30.4255 68.53 30.9907C67.4108 31.5448 66.1585 31.8218 64.7733 31.8218C63.377 31.8218 62.1581 31.5891 61.1164 31.1237C60.0858 30.6582 59.227 30.0155 58.5399 29.1955C57.8529 28.3643 57.3376 27.4003 56.9941 26.3032C56.6505 25.1951 56.4788 24.0093 56.4788 22.746V22.264C56.4788 20.9896 56.6505 19.8038 56.9941 18.7068C57.3376 17.5986 57.8529 16.6346 58.5399 15.8145C59.227 14.9834 60.0858 14.3351 61.1164 13.8697C62.147 13.4043 63.3548 13.1716 64.74 13.1716C66.2139 13.1716 67.5049 13.4541 68.6131 14.0193C69.7323 14.5844 70.6078 15.3934 71.2394 16.4461C71.8822 17.4878 72.209 18.7234 72.2201 20.1529H67.7154C67.7044 19.5546 67.577 19.0115 67.3331 18.5239C67.1005 18.0363 66.7569 17.6485 66.3026 17.3603C65.8593 17.0612 65.3108 16.9116 64.657 16.9116C63.9588 16.9116 63.3881 17.0612 62.9449 17.3603C62.5016 17.6485 62.1581 18.0474 61.9142 18.5572C61.6705 19.0558 61.4987 19.6266 61.399 20.2693C61.3103 20.9009 61.266 21.5658 61.266 22.264V22.746C61.266 23.4442 61.3103 24.1146 61.399 24.7573C61.4876 25.4001 61.6538 25.9707 61.8976 26.4694C62.1525 26.9681 62.5016 27.3615 62.9449 27.6496C63.3881 27.9377 63.9644 28.0818 64.6736 28.0818ZM81.145 5.94083V31.4894H76.3577V5.94083H81.145ZM92.4817 13.504L84.6689 22.4135L80.4801 26.6523L78.7347 23.1948L82.0592 18.9728L86.7302 13.504H92.4817ZM87.5115 31.4894L82.1922 23.1782L85.5005 20.2859L93.0298 31.4894H87.5115ZM110.797 13.504V31.4894H105.992V13.504H110.797ZM105.694 8.81651C105.694 8.11835 105.937 7.54211 106.425 7.08776C106.912 6.63342 107.566 6.40625 108.386 6.40625C109.195 6.40625 109.843 6.63342 110.331 7.08776C110.83 7.54211 111.079 8.11835 111.079 8.81651C111.079 9.51464 110.83 10.0909 110.331 10.5452C109.843 10.9996 109.195 11.2267 108.386 11.2267C107.566 11.2267 106.912 10.9996 106.425 10.5452C105.937 10.0909 105.694 9.51464 105.694 8.81651ZM124.924 13.504V16.895H114.452V13.504H124.924ZM117.045 9.06579H121.832V26.0705C121.832 26.5913 121.899 26.9902 122.032 27.2673C122.176 27.5443 122.386 27.7382 122.664 27.8491C122.94 27.9488 123.289 27.9986 123.711 27.9986C124.01 27.9986 124.276 27.9876 124.509 27.9655C124.752 27.9322 124.957 27.8989 125.123 27.8657L125.14 31.3896C124.73 31.5226 124.287 31.6279 123.81 31.7054C123.334 31.7831 122.808 31.8218 122.232 31.8218C121.179 31.8218 120.259 31.65 119.472 31.3066C118.696 30.9519 118.098 30.3867 117.677 29.6111C117.256 28.8353 117.045 27.8158 117.045 26.5525V9.06579Z" fill="white"/>
</g>
<defs>
<clipPath id="clip0_25_7">
<rect width="135.319" height="40" fill="white"/>
</clipPath>
</defs>
</svg>
